<svg width="18" height="25" viewBox="0 0 18 25" fill="none" xmlns="http://www.w3.org/2000/svg">
<path d="M9.516 0.260986C3.736 0.260986 0 3.37499 0 8.19499C0 12.968 4.289 14.39 7.127 15.331C8.403 15.754 9.989 16.279 10 16.798C9.992 17.199 9.043 17.261 8.477 17.261C6.591 17.261 3.698 16.481 1.443 15.365L0 14.65V22.447L0.611 22.702C2.958 23.688 5.707 24.256 8.154 24.261C14.32 24.261 18 21.419 18 16.661C18 11.469 13.592 10.058 10.676 9.12399C9.61 8.78199 8 8.26599 8 7.83499C8 7.60599 8 7.26099 9.23 7.26099C11.08 7.26099 13.652 8.02599 15.488 9.12099L17 10.023V1.80799L16.363 1.55999C14.207 0.720986 11.777 0.260986 9.516 0.260986ZM9.516 2.26099C11.315 2.26099 13.237 2.58899 15 3.19099V6.62199C13.114 5.78299 10.953 5.26099 9.23 5.26099C6.315 5.26099 6 7.06099 6 7.83499C6 9.72599 7.975 10.36 10.066 11.029C13.541 12.141 16 13.195 16 16.661C16 21.714 10.513 22.261 8.156 22.261C6.176 22.257 3.967 21.838 2 21.103V17.798C3.993 18.595 6.466 19.261 8.477 19.261C11.531 19.261 11.997 17.727 12 16.804V16.792C11.992 14.836 9.935 14.155 7.756 13.432C4.386 12.316 2 11.287 2 8.19599C2 4.53399 4.88 2.26099 9.516 2.26099Z" fill="#727272"/>
</svg>
