<svg width="28" height="28" viewBox="0 0 28 28" fill="none" xmlns="http://www.w3.org/2000/svg">
<path d="M11.7667 12.6C11.3064 12.6 10.9333 12.9731 10.9333 13.4333C10.9333 13.8936 11.3064 14.2667 11.7667 14.2667H18.4333C18.8936 14.2667 19.2667 13.8936 19.2667 13.4333C19.2667 12.9731 18.8936 12.6 18.4333 12.6H11.7667Z" fill="#2C2C2C"/>
<path d="M1.76668 2.6C1.30645 2.6 0.93335 2.9731 0.93335 3.43334C0.93335 3.89357 1.30645 4.26667 1.76668 4.26667H3.61604L4.28554 6.94467L6.78096 20.2536C6.85486 20.6477 7.199 20.9333 7.60002 20.9333H9.26668C7.42573 20.9333 5.93335 22.4257 5.93335 24.2667C5.93335 26.1076 7.42573 27.6 9.26668 27.6C11.1076 27.6 12.6 26.1076 12.6 24.2667C12.6 22.4257 11.1076 20.9333 9.26668 20.9333H20.9333C19.0924 20.9333 17.6 22.4257 17.6 24.2667C17.6 26.1076 19.0924 27.6 20.9333 27.6C22.7743 27.6 24.2667 26.1076 24.2667 24.2667C24.2667 22.4257 22.7743 20.9333 20.9333 20.9333H22.6C23.001 20.9333 23.3452 20.6477 23.4191 20.2536L25.9191 6.92024C25.9648 6.67658 25.8996 6.42524 25.7413 6.23447C25.583 6.04371 25.3479 5.93334 25.1 5.93334H5.75066L5.07513 3.23122C4.98239 2.86025 4.64907 2.6 4.26668 2.6H1.76668ZM8.29162 19.2667L6.10412 7.6H24.0959L21.9084 19.2667H8.29162ZM10.9333 24.2667C10.9333 25.1871 10.1872 25.9333 9.26668 25.9333C8.34621 25.9333 7.60002 25.1871 7.60002 24.2667C7.60002 23.3462 8.34621 22.6 9.26668 22.6C10.1872 22.6 10.9333 23.3462 10.9333 24.2667ZM22.6 24.2667C22.6 25.1871 21.8538 25.9333 20.9333 25.9333C20.0129 25.9333 19.2667 25.1871 19.2667 24.2667C19.2667 23.3462 20.0129 22.6 20.9333 22.6C21.8538 22.6 22.6 23.3462 22.6 24.2667Z" fill="#2C2C2C"/>
</svg>
