<svg width="28" height="28" viewBox="0 0 28 28" fill="none" xmlns="http://www.w3.org/2000/svg">
<path d="M19.2667 10.9333C19.2667 13.6948 17.0281 15.9333 14.2667 15.9333C11.5053 15.9333 9.26668 13.6948 9.26668 10.9333C9.26668 8.17191 11.5053 5.93333 14.2667 5.93333C17.0281 5.93333 19.2667 8.17191 19.2667 10.9333Z" fill="#2C2C2C"/>
<path fill-rule="evenodd" clip-rule="evenodd" d="M0.93335 14.2667C0.93335 6.90287 6.90289 0.933334 14.2667 0.933334C21.6305 0.933334 27.6 6.90287 27.6 14.2667C27.6 21.6305 21.6305 27.6 14.2667 27.6C6.90289 27.6 0.93335 21.6305 0.93335 14.2667ZM14.2667 2.6C7.82336 2.6 2.60002 7.82335 2.60002 14.2667C2.60002 17.0224 3.55544 19.5549 5.15312 21.5512C6.33823 19.6421 8.94108 17.6 14.2667 17.6C19.5923 17.6 22.1951 19.6421 23.3803 21.5512C24.9779 19.5549 25.9333 17.0224 25.9333 14.2667C25.9333 7.82335 20.71 2.6 14.2667 2.6Z" fill="#2C2C2C"/>
</svg>
