<svg width="20" height="20" viewBox="0 0 20 20" fill="none" xmlns="http://www.w3.org/2000/svg">
<path d="M12.5 3.75C13.1904 3.75 13.75 4.30964 13.75 5V15C13.75 15.6904 13.1904 16.25 12.5 16.25H7.5C6.80964 16.25 6.25 15.6904 6.25 15V5C6.25 4.30964 6.80964 3.75 7.5 3.75H12.5ZM7.5 2.5C6.11929 2.5 5 3.61929 5 5V15C5 16.3807 6.11929 17.5 7.5 17.5H12.5C13.8807 17.5 15 16.3807 15 15V5C15 3.61929 13.8807 2.5 12.5 2.5H7.5Z" fill="#2C2C2C"/>
<path d="M10 15C10.6904 15 11.25 14.4404 11.25 13.75C11.25 13.0596 10.6904 12.5 10 12.5C9.30964 12.5 8.75 13.0596 8.75 13.75C8.75 14.4404 9.30964 15 10 15Z" fill="#2C2C2C"/>
<path d="M1.99839 5.07245C2.30356 5.23376 2.42017 5.61191 2.25886 5.91708C1.61489 7.13532 1.25 8.52413 1.25 10C1.25 11.4759 1.61489 12.8647 2.25886 14.0829C2.42017 14.3881 2.30356 14.7662 1.99839 14.9276C1.69322 15.0889 1.31507 14.9722 1.15376 14.6671C0.416935 13.2732 0 11.6844 0 10C0 8.31564 0.416935 6.72682 1.15376 5.33292C1.31507 5.02775 1.69322 4.91114 1.99839 5.07245ZM18.0016 5.07245C18.3068 4.91114 18.6849 5.02775 18.8462 5.33292C19.5831 6.72682 20 8.31564 20 10C20 11.6844 19.5831 13.2732 18.8462 14.6671C18.6849 14.9722 18.3068 15.0889 18.0016 14.9276C17.6964 14.7662 17.5798 14.3881 17.7411 14.0829C18.3851 12.8647 18.75 11.4759 18.75 10C18.75 8.52413 18.3851 7.13532 17.7411 5.91708C17.5798 5.61191 17.6964 5.23376 18.0016 5.07245ZM3.82103 6.91782C4.14256 7.04339 4.30142 7.40583 4.17585 7.72736C3.9011 8.4309 3.75 9.19706 3.75 10C3.75 10.8029 3.9011 11.5691 4.17585 12.2726C4.30142 12.5942 4.14256 12.9566 3.82103 13.0822C3.4995 13.2077 3.13706 13.0489 3.0115 12.7274C2.68106 11.8812 2.5 10.961 2.5 10C2.5 9.03898 2.68106 8.11876 3.0115 7.27264C3.13706 6.95111 3.4995 6.79225 3.82103 6.91782ZM16.179 6.91782C16.5005 6.79225 16.8629 6.95111 16.9885 7.27264C17.3189 8.11876 17.5 9.03898 17.5 10C17.5 10.961 17.3189 11.8812 16.9885 12.7274C16.8629 13.0489 16.5005 13.2077 16.179 13.0822C15.8574 12.9566 15.6986 12.5942 15.8241 12.2726C16.0989 11.5691 16.25 10.8029 16.25 10C16.25 9.19706 16.0989 8.4309 15.8241 7.72736C15.6986 7.40583 15.8574 7.04339 16.179 6.91782Z" fill="#2C2C2C"/>
</svg>
