<svg width="12" height="15" viewBox="0 0 12 15" fill="none" xmlns="http://www.w3.org/2000/svg">
<path d="M0.241211 3.98647C0.241211 2.99849 1.04561 2.19758 2.03788 2.19758H7.42788C8.42015 2.19758 9.22454 2.99849 9.22454 3.98647V14.2726C9.22454 14.4375 9.13337 14.5891 8.98732 14.6669C8.84127 14.7447 8.66405 14.7362 8.52622 14.6447L4.73288 12.1267L0.93953 14.6447C0.801701 14.7362 0.624485 14.7447 0.478435 14.6669C0.332385 14.5891 0.241211 14.4375 0.241211 14.2726V3.98647ZM2.03788 3.09202C1.54174 3.09202 1.13954 3.49248 1.13954 3.98647V13.4369L4.48372 11.2171C4.6346 11.117 4.83116 11.117 4.98203 11.2171L8.32621 13.4369V3.98647C8.32621 3.49248 7.92401 3.09202 7.42788 3.09202H2.03788Z" fill="#2C2C2C"/>
<path d="M2.27825 1.30314H9.22456C9.28657 1.30314 9.34712 1.30939 9.4056 1.32131C9.81496 1.40471 10.1229 1.76534 10.1229 2.19758V12.723L10.3229 12.8558C10.4607 12.9473 10.6379 12.9558 10.784 12.878C10.93 12.8002 11.0212 12.6486 11.0212 12.4837V2.19758C11.0212 1.2096 10.2168 0.408691 9.22456 0.408691H3.83456C3.16954 0.408691 2.5889 0.768436 2.27825 1.30314Z" fill="#2C2C2C"/>
</svg>
