<svg width="14" height="13" viewBox="0 0 14 13" fill="none" xmlns="http://www.w3.org/2000/svg">
<path d="M13.0848 3.44717L13.0853 3.44916C13.1537 3.71882 13.1862 3.99684 13.1821 4.27563L13.1819 4.27563L13.182 4.2865C13.1853 4.81416 13.0496 5.33226 12.7903 5.78618L12.7868 5.7924L12.7834 5.79873C12.6574 6.03431 12.4973 6.24933 12.3101 6.43706L12.3101 6.43704L12.3063 6.44096L7.134 11.7404L1.96173 6.44096L1.96173 6.44095L1.96035 6.43955C1.77091 6.24694 1.60664 6.02944 1.4719 5.79248C1.34718 5.56026 1.24984 5.31341 1.18203 5.05713C1.11818 4.80617 1.08601 4.54606 1.08601 4.28333H1.08607L1.08595 4.27569C1.0818 3.99686 1.11438 3.71881 1.18275 3.44911L1.18278 3.44912L1.18409 3.4437C1.31147 2.91729 1.57968 2.43942 1.95679 2.06347L1.95682 2.0635L1.96113 2.0591C2.23944 1.7749 2.56829 1.54942 2.92911 1.39457C3.6534 1.0905 4.46458 1.09036 5.18895 1.39413C5.5232 1.53945 5.83167 1.74171 6.10121 1.99275L6.12649 2.02384L6.14115 2.04186L6.15738 2.05848L6.76664 2.68273L7.134 3.05912L7.50136 2.68273L8.11063 2.05848L8.12685 2.04186L8.14151 2.02385L8.16679 1.99275C8.43634 1.74171 8.7448 1.53944 9.07906 1.39413C9.80344 1.09035 10.6146 1.0905 11.3389 1.39457C11.6997 1.54942 12.0286 1.7749 12.3069 2.0591L12.3068 2.05915L12.3127 2.06498C12.4996 2.24974 12.658 2.46328 12.7821 2.6983L12.7861 2.70594L12.7904 2.71344C12.9213 2.94243 13.0205 3.18939 13.0848 3.44717Z" stroke="#2C2C2C" stroke-width="1.02667"/>
</svg>
