<svg width="11" height="20" viewBox="0 0 11 20" fill="none" xmlns="http://www.w3.org/2000/svg">
<path d="M7.6806 19.1545C8.3182 19.8832 9.42579 19.957 10.1545 19.3194C10.8832 18.6818 10.957 17.5742 10.3194 16.8455L7.6806 19.1545ZM2 10L0.6806 8.84553C0.102231 9.50652 0.102231 10.4935 0.6806 11.1545L2 10ZM10.3194 3.15448C10.957 2.42579 10.8832 1.3182 10.1545 0.680601C9.42579 0.0430031 8.3182 0.116842 7.6806 0.845526L10.3194 3.15448ZM10.3194 16.8455L3.3194 8.84553L0.6806 11.1545L7.6806 19.1545L10.3194 16.8455ZM3.3194 11.1545L10.3194 3.15448L7.6806 0.845526L0.6806 8.84553L3.3194 11.1545Z" fill="#2C2C2C"/>
</svg>
