<svg class ="basket" width="24" height="24" viewBox="0 0 24 24" fill="none" xmlns="http://www.w3.org/2000/svg">
<g filter="url(#filter0_d_458_618)">
<rect x="1.40918" y="1.84448" width="20.5333" height="20.5333" rx="3.42222" fill="white"/>
</g>
<path d="M9.32401 10.4427C9.5839 10.4427 9.79457 10.6534 9.79457 10.9133V16.5599C9.79457 16.8198 9.58389 17.0305 9.32401 17.0305C9.06413 17.0305 8.85346 16.8198 8.85346 16.5599V10.9133C8.85346 10.6534 9.06413 10.4427 9.32401 10.4427Z" fill="black"/>
<path d="M11.6768 10.4427C11.9367 10.4427 12.1473 10.6534 12.1473 10.9133V16.5599C12.1473 16.8198 11.9367 17.0305 11.6768 17.0305C11.4169 17.0305 11.2062 16.8198 11.2062 16.5599V10.9133C11.2062 10.6534 11.4169 10.4427 11.6768 10.4427Z" fill="black"/>
<path d="M14.5001 10.9133C14.5001 10.6534 14.2894 10.4427 14.0296 10.4427C13.7697 10.4427 13.559 10.6534 13.559 10.9133V16.5599C13.559 16.8198 13.7697 17.0305 14.0296 17.0305C14.2894 17.0305 14.5001 16.8198 14.5001 16.5599V10.9133Z" fill="black"/>
<path d="M17.794 8.08994C17.794 8.6097 17.3727 9.03105 16.8529 9.03105H16.3823V17.501C16.3823 18.5406 15.5396 19.3833 14.5001 19.3833H8.85346C7.81394 19.3833 6.97124 18.5406 6.97124 17.501V9.03105H6.50068C5.98092 9.03105 5.55957 8.6097 5.55957 8.08994V7.14882C5.55957 6.62906 5.98092 6.20771 6.50068 6.20771H9.79457C9.79457 5.68795 10.2159 5.2666 10.7357 5.2666H12.6179C13.1377 5.2666 13.559 5.68795 13.559 6.20771H16.8529C17.3727 6.20771 17.794 6.62906 17.794 7.14882V8.08994ZM8.02343 9.03105L7.91235 9.08659V17.501C7.91235 18.0208 8.3337 18.4422 8.85346 18.4422H14.5001C15.0199 18.4422 15.4412 18.0208 15.4412 17.501V9.08659L15.3302 9.03105H8.02343ZM6.50068 8.08994H16.8529V7.14882H6.50068V8.08994Z" fill="black"/>
<path d="M12.8746 6.46438H10.479V6.20771C10.479 6.06596 10.5939 5.95105 10.7357 5.95105H12.6179C12.7597 5.95105 12.8746 6.06596 12.8746 6.20771V6.46438Z" stroke="#2C2C2C" stroke-width="1.36889"/>
<defs>
<filter id="filter0_d_458_618" x="0.0402908" y="0.475594" width="23.271" height="23.2711" filterUnits="userSpaceOnUse" color-interpolation-filters="sRGB">
<feFlood flood-opacity="0" result="BackgroundImageFix"/>
<feColorMatrix in="SourceAlpha" type="matrix" values="0 0 0 0 0 0 0 0 0 0 0 0 0 0 0 0 0 0 127 0" result="hardAlpha"/>
<feOffset/>
<feGaussianBlur stdDeviation="0.684444"/>
<feComposite in2="hardAlpha" operator="out"/>
<feColorMatrix type="matrix" values="0 0 0 0 0 0 0 0 0 0 0 0 0 0 0 0 0 0 0.25 0"/>
<feBlend mode="normal" in2="BackgroundImageFix" result="effect1_dropShadow_458_618"/>
<feBlend mode="normal" in="SourceGraphic" in2="effect1_dropShadow_458_618" result="shape"/>
</filter>
</defs>
</svg>
