<svg width="18" height="18" viewBox="0 0 18 18" fill="none" xmlns="http://www.w3.org/2000/svg">
<path d="M2.25 4.5C2.25 3.25736 3.25736 2.25 4.5 2.25H11.25C12.4926 2.25 13.5 3.25736 13.5 4.5V17.4375C13.5 17.6449 13.3858 17.8356 13.2029 17.9334C13.02 18.0313 12.7981 18.0206 12.6255 17.9055L7.875 14.7385L3.12452 17.9055C2.95191 18.0206 2.72998 18.0313 2.54708 17.9334C2.36418 17.8356 2.25 17.6449 2.25 17.4375V4.5ZM4.5 3.375C3.87868 3.375 3.375 3.87868 3.375 4.5V16.3865L7.56298 13.5945C7.75192 13.4685 7.99808 13.4685 8.18702 13.5945L12.375 16.3865V4.5C12.375 3.87868 11.8713 3.375 11.25 3.375H4.5Z" fill="#2C2C2C"/>
<path d="M4.80103 1.125H13.5C13.5777 1.125 13.6535 1.13287 13.7267 1.14786C14.2394 1.25276 14.625 1.70634 14.625 2.25V15.4885L14.8755 15.6555C15.0481 15.7706 15.27 15.7813 15.4529 15.6834C15.6358 15.5856 15.75 15.3949 15.75 15.1875V2.25C15.75 1.00736 14.7427 0 13.5 0H6.75002C5.9172 0 5.19006 0.452474 4.80103 1.125Z" fill="#2C2C2C"/>
</svg>
