<svg width="18" height="18" viewBox="0 0 18 18" fill="none" xmlns="http://www.w3.org/2000/svg">
<path d="M7.3125 7.875C7.00184 7.875 6.75 8.12684 6.75 8.4375C6.75 8.74816 7.00184 9 7.3125 9H11.8125C12.1232 9 12.375 8.74816 12.375 8.4375C12.375 8.12684 12.1232 7.875 11.8125 7.875H7.3125Z" fill="white"/>
<path d="M0.5625 1.125C0.25184 1.125 0 1.37684 0 1.6875C0 1.99816 0.25184 2.25 0.5625 2.25H1.81081L2.26273 4.05765L3.94713 13.0412C3.99702 13.3072 4.22932 13.5 4.5 13.5H5.625C4.38236 13.5 3.375 14.5074 3.375 15.75C3.375 16.9926 4.38236 18 5.625 18C6.86764 18 7.875 16.9926 7.875 15.75C7.875 14.5074 6.86764 13.5 5.625 13.5H13.5C12.2574 13.5 11.25 14.5074 11.25 15.75C11.25 16.9926 12.2574 18 13.5 18C14.7426 18 15.75 16.9926 15.75 15.75C15.75 14.5074 14.7426 13.5 13.5 13.5H14.625C14.8957 13.5 15.128 13.3072 15.1779 13.0412L16.8654 4.04116C16.8962 3.87669 16.8522 3.70703 16.7453 3.57827C16.6385 3.4495 16.4798 3.375 16.3125 3.375H3.25169L2.79571 1.55107C2.7331 1.30067 2.50811 1.125 2.25 1.125H0.5625ZM4.96683 12.375L3.49027 4.5H15.6347L14.1582 12.375H4.96683ZM6.75 15.75C6.75 16.3713 6.24632 16.875 5.625 16.875C5.00368 16.875 4.5 16.3713 4.5 15.75C4.5 15.1287 5.00368 14.625 5.625 14.625C6.24632 14.625 6.75 15.1287 6.75 15.75ZM14.625 15.75C14.625 16.3713 14.1213 16.875 13.5 16.875C12.8787 16.875 12.375 16.3713 12.375 15.75C12.375 15.1287 12.8787 14.625 13.5 14.625C14.1213 14.625 14.625 15.1287 14.625 15.75Z" fill="white"/>
</svg>
