<svg width="25" height="25" viewBox="0 0 25 25" fill="none" xmlns="http://www.w3.org/2000/svg">
<path d="M10.3235 11.1787C9.91738 11.1787 9.58818 11.5074 9.58818 11.9129C9.58818 12.3184 9.91738 12.6471 10.3235 12.6471H16.2058C16.6119 12.6471 16.9411 12.3184 16.9411 11.9129C16.9411 11.5074 16.6119 11.1787 16.2058 11.1787H10.3235Z" fill="#2C2C2C"/>
<path d="M1.49994 2.36804C1.09385 2.36804 0.764648 2.69676 0.764648 3.10226C0.764648 3.50776 1.09385 3.83648 1.49994 3.83648H3.13172L3.72246 6.19596L5.9243 17.9219C5.98951 18.2692 6.29317 18.5208 6.647 18.5208H8.11759C6.49322 18.5208 5.17641 19.8357 5.17641 21.4577C5.17641 23.0797 6.49322 24.3946 8.11759 24.3946C9.74196 24.3946 11.0588 23.0797 11.0588 21.4577C11.0588 19.8357 9.74196 18.5208 8.11759 18.5208H18.4117C16.7873 18.5208 15.4705 19.8357 15.4705 21.4577C15.4705 23.0797 16.7873 24.3946 18.4117 24.3946C20.0361 24.3946 21.3529 23.0797 21.3529 21.4577C21.3529 19.8357 20.0361 18.5208 18.4117 18.5208H19.8823C20.2361 18.5208 20.5398 18.2692 20.605 17.9219L22.8109 6.17444C22.8512 5.95976 22.7937 5.73831 22.654 5.57024C22.5143 5.40216 22.3069 5.30492 22.0882 5.30492H5.01522L4.41916 2.92419C4.33733 2.59734 4.04323 2.36804 3.70582 2.36804H1.49994ZM7.25724 17.0524L5.32709 6.77335H21.2022L19.2721 17.0524H7.25724ZM9.58818 21.4577C9.58818 22.2687 8.92977 22.9262 8.11759 22.9262C7.30541 22.9262 6.647 22.2687 6.647 21.4577C6.647 20.6467 7.30541 19.9893 8.11759 19.9893C8.92977 19.9893 9.58818 20.6467 9.58818 21.4577ZM19.8823 21.4577C19.8823 22.2687 19.2239 22.9262 18.4117 22.9262C17.5995 22.9262 16.9411 22.2687 16.9411 21.4577C16.9411 20.6467 17.5995 19.9893 18.4117 19.9893C19.2239 19.9893 19.8823 20.6467 19.8823 21.4577Z" fill="#2C2C2C"/>
</svg>
