<svg width="20" height="11" viewBox="0 0 20 11" fill="none" xmlns="http://www.w3.org/2000/svg">
<path d="M19.1545 3.3194C19.8832 2.6818 19.957 1.57421 19.3194 0.845525C18.6818 0.116841 17.5742 0.0430019 16.8455 0.680601L19.1545 3.3194ZM10 9L8.84553 10.3194C9.50652 10.8978 10.4935 10.8978 11.1545 10.3194L10 9ZM3.15448 0.680601C2.42579 0.0430019 1.3182 0.116841 0.680601 0.845525C0.0430031 1.57421 0.116842 2.6818 0.845526 3.3194L3.15448 0.680601ZM16.8455 0.680601L8.84553 7.6806L11.1545 10.3194L19.1545 3.3194L16.8455 0.680601ZM11.1545 7.6806L3.15448 0.680601L0.845526 3.3194L8.84553 10.3194L11.1545 7.6806Z" fill="#2C2C2C"/>
</svg>
