<svg width="27" height="27" viewBox="0 0 27 27" fill="none" xmlns="http://www.w3.org/2000/svg">
<path d="M3.33374 6.6675C3.33374 4.82632 4.82631 3.33375 6.66749 3.33375H16.6687C18.5099 3.33375 20.0025 4.82632 20.0025 6.6675V25.8366C20.0025 26.1439 19.8333 26.4263 19.5623 26.5714C19.2913 26.7164 18.9625 26.7005 18.7067 26.53L11.6681 21.8376L4.62949 26.53C4.37374 26.7005 4.04491 26.7164 3.77391 26.5714C3.50292 26.4263 3.33374 26.1439 3.33374 25.8366V6.6675ZM6.66749 5.00063C5.7469 5.00063 5.00062 5.74691 5.00062 6.6675V24.2793L11.2058 20.1425C11.4858 19.9558 11.8505 19.9558 12.1304 20.1425L18.3356 24.2793V6.6675C18.3356 5.74691 17.5893 5.00063 16.6687 5.00063H6.66749Z" fill="#2C2C2C"/>
<path d="M7.11351 1.66688H20.0025C20.1176 1.66688 20.2299 1.67854 20.3384 1.70074C21.098 1.85617 21.6694 2.52823 21.6694 3.33375V22.9489L22.0405 23.1963C22.2963 23.3668 22.6251 23.3827 22.8961 23.2376C23.1671 23.0926 23.3363 22.8102 23.3363 22.5028V3.33375C23.3363 1.49257 21.8437 0 20.0025 0H10.0013C8.7673 0 7.68993 0.670415 7.11351 1.66688Z" fill="#2C2C2C"/>
</svg>
