<svg width="20" height="20" viewBox="0 0 20 20" fill="none" xmlns="http://www.w3.org/2000/svg">
<path d="M2.5 2.5C1.11929 2.5 0 3.61929 0 5V15L3.22983e-05 15.0128C0.00694998 16.3876 1.12357 17.5 2.5 17.5H9.375C9.72018 17.5 10 17.2202 10 16.875C10 16.5298 9.72018 16.25 9.375 16.25H2.5C1.92144 16.25 1.43468 15.8569 1.29221 15.3233L8.34272 10.9845L10 11.9789L18.75 6.72887V10.625C18.75 10.9702 19.0298 11.25 19.375 11.25C19.7202 11.25 20 10.9702 20 10.625V5C20 3.61929 18.8807 2.5 17.5 2.5H2.5ZM7.1351 10.2599L1.25 13.8815V6.72887L7.1351 10.2599ZM1.25 5.27113V5C1.25 4.30964 1.80964 3.75 2.5 3.75H17.5C18.1904 3.75 18.75 4.30964 18.75 5V5.27113L10 10.5211L1.25 5.27113Z" fill="#2C2C2C"/>
<path d="M17.8084 17.8357C19.0709 17.8357 19.7923 16.7645 19.7923 15.3053V15.0429C19.7923 13.0372 18.3003 11.25 15.6496 11.25H15.6059C13.0262 11.25 11.25 12.9497 11.25 15.5403V15.8081C11.25 18.5244 13.0481 20 15.4474 20H15.502C16.2453 20 16.7755 19.9071 17.0487 19.7814V18.8687C16.7427 19.0053 16.2071 19.0928 15.5731 19.0928H15.5184C13.8515 19.0928 12.3048 18.109 12.3048 15.7753V15.5785C12.3048 13.5072 13.6274 12.1736 15.6059 12.1736H15.6551C17.5734 12.1736 18.7594 13.4853 18.7594 15.0812V15.2288C18.7594 16.4475 18.3549 16.9667 17.9614 16.9667C17.6718 16.9667 17.4477 16.7809 17.4477 16.4421V13.7039H16.3164V14.4144H16.2781C16.1743 14.0428 15.819 13.6274 15.0867 13.6274C14.1138 13.6274 13.5126 14.3215 13.5126 15.3763V16.0376C13.5126 17.1526 14.1248 17.8303 15.0867 17.8303C15.6769 17.8303 16.2071 17.5461 16.3546 17.0269H16.4093C16.5568 17.5515 17.1799 17.8357 17.8084 17.8357ZM14.7423 15.8518V15.5676C14.7423 14.8844 15.0265 14.5784 15.4583 14.5784C15.83 14.5784 16.1743 14.8189 16.1743 15.4638V15.9229C16.1743 16.6388 15.8573 16.852 15.4692 16.852C15.0265 16.852 14.7423 16.5842 14.7423 15.8518Z" fill="#2C2C2C"/>
</svg>
