<svg width="27" height="27" viewBox="0 0 27 27" fill="none" xmlns="http://www.w3.org/2000/svg">
<path d="M19.5727 17.242C20.8908 15.4474 21.6694 13.232 21.6694 10.8347C21.6694 4.85085 16.8185 0 10.8347 0C4.85085 0 0 4.85085 0 10.8347C0 16.8185 4.85085 21.6694 10.8347 21.6694C13.2326 21.6694 15.4486 20.8904 17.2434 19.5716L17.242 19.5727C17.2911 19.6394 17.3459 19.7032 17.4062 19.7635L23.8245 26.1818C24.4754 26.8327 25.5308 26.8327 26.1818 26.1818C26.8327 25.5308 26.8327 24.4754 26.1818 23.8245L19.7635 17.4062C19.7032 17.3459 19.6394 17.2911 19.5727 17.242ZM20.0025 10.8347C20.0025 15.8979 15.8979 20.0025 10.8347 20.0025C5.77144 20.0025 1.66688 15.8979 1.66688 10.8347C1.66688 5.77144 5.77144 1.66688 10.8347 1.66688C15.8979 1.66688 20.0025 5.77144 20.0025 10.8347Z" fill="#2C2C2C"/>
</svg>
